<svg xmlns:xlink="http://www.w3.org/1999/xlink" xmlns="http://www.w3.org/2000/svg" id="exportSvg" width="600" height="400"><defs/><g><g id="header-svg"><g id="text-svg"><text transform="translate(0, -1.1111111640930176)" fill="rgb(51,51,51)" style="font-family: BentonSans; font-weight: 700; font-size: 19px;"><tspan x="0" dy="19">Lacy Johnson's small donor fundraising spikes during media </tspan></text><text transform="translate(0, 18.88888931274414)" fill="rgb(51,51,51)" style="font-family: BentonSans; font-weight: 700; font-size: 19px;"><tspan x="0" dy="19">exposure</tspan></text></g><g id="text-svg"><text transform="translate(0, 51.111114501953125)" fill="rgb(51,51,51)" style="font-family: BentonSans; font-weight: 400; font-size: 15px;"><tspan x="0" dy="15">Donations to Republican candidate Lacy Johnson's District Five campaign via WinRed </tspan></text><text transform="translate(0, 71.11111450195312)" fill="rgb(51,51,51)" style="font-family: BentonSans; font-weight: 400; font-size: 15px;"><tspan x="0" dy="15">has surged in tandem with mentions in the news and social media.</tspan></text></g><text transform="translate(0, 98.8888931274414)" fill="rgb(51,51,51)" style="font-family: BentonSans; font-weight: 400; font-size: 12px; letter-spacing: 0.2px;"><tspan x="0" dy="12">WINRED CONTRIBUTIONS BY DAY</tspan></text></g><g id="chart-svg"><g id="group-svg"><g id="x-svg ticks-svg"><g id="tick-svg"><text transform="translate(48.93050765991211, 346.4427185058594)" fill="rgb(133, 133, 133)" style="font-family: BentonSans; font-weight: 400; font-size: 12px;"><tspan x="8.968753814697266" dy="12">08/01/2019</tspan></text></g><g id="tick-svg"><text transform="translate(169.83250427246094, 346.4427185058594)" fill="rgb(133, 133, 133)" style="font-family: BentonSans; font-weight: 400; font-size: 12px;"><tspan x="7.84375" dy="12">10/01/2019</tspan></text></g><g id="tick-svg"><text transform="translate(290.0350341796875, 346.4427185058594)" fill="rgb(133, 133, 133)" style="font-family: BentonSans; font-weight: 400; font-size: 12px;"><tspan x="7.500003814697266" dy="12">12/01/2019</tspan></text></g><g id="tick-svg"><text transform="translate(409.41619873046875, 346.4427185058594)" fill="rgb(133, 133, 133)" style="font-family: BentonSans; font-weight: 400; font-size: 12px;"><tspan x="9.859386444091797" dy="12">02/01/2020</tspan></text></g><g id="tick-svg"><text transform="translate(526.9290771484375, 346.4427185058594)" fill="rgb(133, 133, 133)" style="font-family: BentonSans; font-weight: 400; font-size: 12px;"><tspan x="10.078128814697266" dy="12">04/01/2020</tspan></text></g></g><g id="x-svg axis-svg"><line x1="0" x2="518" y1="0" y2="0" transform="translate(0, 123.33333587646484) translate(54,10) translate(0,208)" style="stroke: rgb(51, 51, 51); stroke-width: 1;"/></g><g id="y-grid-svg"><g id="tick-svg tick-major-svg"><text transform="translate(39.062503814697266, 334.20831298828125)" fill="rgb(133, 133, 133)" style="font-family: BentonSans; font-weight: 400; font-size: 12px;"><tspan x="4.937499523162842" dy="12">0</tspan></text></g><g id="tick-svg tick-major-svg"><line x1="0" x2="518" y1="0" y2="0" transform="translate(0, 123.33333587646484) translate(54,10) translate(0,163.66544462443517)" style="stroke: rgb(238, 238, 238); stroke-width: 1;"/><text transform="translate(13.609375, 289.8738098144531)" fill="rgb(133, 133, 133)" style="font-family: BentonSans; font-weight: 400; font-size: 12px;"><tspan x="9.390628814697266" dy="12">5,000</tspan></text></g><g id="tick-svg tick-major-svg"><line x1="0" x2="518" y1="0" y2="0" transform="translate(0, 123.33333587646484) translate(54,10) translate(0,119.33088924887032)" style="stroke: rgb(238, 238, 238); stroke-width: 1;"/><text transform="translate(7.859375953674316, 245.53924560546875)" fill="rgb(133, 133, 133)" style="font-family: BentonSans; font-weight: 400; font-size: 12px;"><tspan x="9.140625" dy="12">10,000</tspan></text></g><g id="tick-svg tick-major-svg"><line x1="0" x2="518" y1="0" y2="0" transform="translate(0, 123.33333587646484) translate(54,10) translate(0,74.99633387330547)" style="stroke: rgb(238, 238, 238); stroke-width: 1;"/><text transform="translate(8.375000953674316, 201.20468139648438)" fill="rgb(133, 133, 133)" style="font-family: BentonSans; font-weight: 400; font-size: 12px;"><tspan x="8.625003814697266" dy="12">15,000</tspan></text></g><g id="tick-svg tick-major-svg"><line x1="0" x2="518" y1="0" y2="0" transform="translate(0, 123.33333587646484) translate(54,10) translate(0,30.66177849774064)" style="stroke: rgb(238, 238, 238); stroke-width: 1;"/><text transform="translate(-1.84375, 156.8701171875)" fill="rgb(133, 133, 133)" style="font-family: BentonSans; font-weight: 400; font-size: 12px;"><tspan x="12.859375" dy="12">$20,000</tspan></text></g></g><path d="M9.628252795961156,207.77832722312218L11.591809860649361,207.91133088924886L13.555366925337566,206.71429789410863L17.482481054713976,207.55665444624435L21.409595184090385,207.77832722312218L23.37315224877859,207.55665444624435L25.336709313466795,207.61872282377016L27.300266378155,207.55665444624435L29.263823442843208,202.8128570210589L31.227380507531407,205.7389376758462L33.19093757221962,206.44829056185523L35.15449463690782,207.2463125586154L37.11805170159603,206.98030522636202L39.08160876628423,207.77832722312218L41.04516583097243,199.13308892488703L43.00872289566064,205.56159945434393L44.97227996034884,207.1133088924887L46.935837025037046,207.1133088924887L48.89939408972525,207.20197800323984L54.790065283789865,207.91133088924886L56.753622348478075,201.26114758291413L58.71717941316628,196.47301560235314L60.68073647785448,198.06019268479835L62.64429354254269,200.37445647540284L64.60785060723089,194.21195327819933L66.5714076719191,192.05374712251682L68.53496473660731,191.62281524426635L70.49852180129551,195.7636627163441L72.46207886598371,178.7391934521272L74.42563593067192,197.71438315286895L76.38919299536012,152.49313666979282L78.35275006004834,162.28220649671755L80.31630712473654,197.89172137437123L82.27986418942474,182.1848750959161L84.24342125411295,186.96946031204706L86.20697831880115,189.73416318526728L88.17053538348935,196.97842953363457L90.13409244817757,207.42365078011767L92.09764951286577,206.2266177849774L94.06120657755397,206.44829056185523L96.02476364224218,206.00494500809958L97.98832070693038,204.97638332338647L99.95187777161858,206.20001705175207L101.91543483630679,201.74882769204535L103.87899190099499,206.62562878335748L105.84254896568319,207.55665444624435L107.8061060303714,206.09361411885072L109.7696630950596,205.1271208116634L111.7332201597478,185.34504220308636L113.696777224436,199.76263961122004L115.66033428912422,206.25321851820274L117.62389135381243,207.95566544462443L119.58744841850063,204.89658112371046L121.55100548318883,204.00989001619917L123.51456254787703,207.1133088924887L125.47811961256524,206.89163611561088L127.44167667725344,207.02463978173756L129.40523374194166,206.44829056185523L131.36879080662985,206.89163611561088L133.33234787131806,207.82266177849775L135.29590493600628,205.56159945434393L137.25946200069447,206.18228322960184L139.2230190653827,202.01483502429875L141.18657613007088,206.00494500809958L143.1501331947591,206.66996333873306L145.11369025944728,207.33498166936653L147.0772473241355,207.2463125586154L149.04080438882372,207.68965811237103L151.0043614535119,205.56159945434393L152.96791851820012,202.192173245801L154.9314755828883,175.36976724358428L156.89503264757653,197.8030522636201L158.85858971226472,205.6059340097195L160.82214677695293,205.8719413419729L162.78570384164115,204.4532355699548L164.74926090632934,207.77832722312218L166.71281797101756,170.64370364054906L168.67637503570575,172.1599454343934L170.63993210039396,193.715406257993L172.60348916508218,203.7704834171711L174.56704622977037,204.63057379145707L176.5306032944586,197.1823684883622L178.49416035914678,196.5173501577287L180.457717423835,170.51956688549748L182.42127448852318,197.19965896495864L184.3848315532114,182.2859578821724L186.34838861789962,195.97646858214682L188.3119456825878,185.61104953533976L190.27550274727602,180.11356466876973L192.2390598119642,125.43132406854805L194.20261687665243,154.6566629721204L196.16617394134062,188.0658538664848L198.12973100602883,177.91661011168898L200.09328807071705,181.00025577628102L202.05684513540524,185.68198482394067L204.02040220009346,195.09864438571063L205.98395926478165,205.1182539005883L207.94751632946986,201.0217409838861L209.91107339415808,205.20692301133943L211.87463045884627,205.42859578821725L213.8381875235345,205.51726489896836L215.80174458822268,192.53610708500298L217.8471165306062,202.58231733310598L219.81067359529442,201.562622559468L221.7742306599826,200.6847983630318L223.73778772467082,201.26114758291413L225.701344789359,200.63159689658113L227.66490185404723,191.83562111006907L229.62845891873545,193.34299599283827L231.59201598342364,195.36465171796402L233.55557304811185,183.61599454343934L235.51913011280004,199.13308892488703L237.48268717748826,198.06905959587348L239.44624424217648,202.36064455622815L241.40980130686467,195.74592889419387L243.37335837155288,204.75471054650865L245.33691543624107,199.57643447864268L247.3004725009293,200.622729985506L249.26402956561748,127.41751214937335L251.2275866303057,141.4094978259016L253.1911436949939,166.57379145707222L255.1547007596821,192.16369681984824L257.1182578243703,195.754795805269L259.08181488905853,187.99624861454515L261.0453719537467,191.57848068889078L263.00892901843497,202.28084235655214L264.97248608312316,203.3448716855657L266.93604314781135,205.9517435416489L268.8996002124996,199.9311109216472L270.8631572771878,206.11134794100093L272.82671434187597,204.32023190382813L274.79027140656416,194.61983118765454L276.7538284712524,203.38033932986613L278.7173855359406,206.98030522636202L280.6809426006288,202.7578821723932L282.64449966531697,206.66996333873306L284.60805673000516,205.3399266774661L286.57161379469335,191.83562111006907L288.53517085938154,196.33114502515133L290.4987279240698,200.04638076562367L292.462284988758,198.46807059425356L294.42584205344616,203.32713786341546L296.3893991181344,203.51334299599284L298.3529561828226,205.35766049961634L300.3165132475108,203.52220990706795L302.28007031219903,206.00494500809958L304.2436273768872,187.41892403444453L306.2071844415754,195.80799727171967L308.1707415062636,199.13308892488703L310.13429857095184,171.9028050132151L312.09785563564003,191.2415380680365L314.0614127003282,194.6109642765794L316.02496976501646,201.96163355784807L317.98852682970465,200.01978003239833L319.95208389439284,197.70551624179384L321.91564095908103,202.63551879955665L323.8791980237693,205.2051496291244L325.84275508845747,206.93597067098645L327.80631215314565,177.14314945860687L329.7698692178339,197.78088498593232L331.7334262825221,205.82760678659733L333.6969833472103,206.8473015602353L335.66054041189847,197.89172137437123L337.6240974765867,201.9660670133856L339.5876545412749,204.40890101457924L341.5512116059631,196.87202660073322L343.51476867065134,205.51726489896836L345.4783257353395,206.27095234035298L347.4418828000277,197.78531844146985L349.4054398647159,191.84448802114417L351.36899692940415,202.35177764515305L353.33255399409234,203.211868019439L355.2961110587805,201.5165146218774L357.25966812346877,192.55384090715322L359.22322518815696,176.92147668172905L361.18678225284515,205.6059340097195L363.15033931753334,201.74882769204535L365.1138963822216,203.25620257481455L367.0774534469098,204.9320487680109L369.04101051159796,168.51564498252196L371.0045675762862,201.10154318356211L372.9681246409744,194.34495694432604L374.9316817056626,196.08287151504817L376.8952387703508,200.09958223207434L378.858795835039,202.3251769119277L380.8223528997272,202.50251513342997L382.7859099644154,206.2266177849774L384.74946702910364,205.7389376758462L386.71302409379183,199.9311109216472L388.67658115848,205.29559212209054L390.64013822316826,203.78821723932134L392.60369528785645,205.8719413419729L394.56725235254464,206.3596214511041L396.53080941723283,199.15791627589735L398.4943664819211,197.4971438315287L400.45792354660927,193.17452468241112L402.42148061129745,194.70850029840565L404.3850376759857,197.40404126524L406.3485947406739,204.5862392360815L408.3121518053621,203.9655554608236L410.27570887005027,192.22470116804502L412.2392659347385,189.867166851394L414.2028229994267,164.68717878762044L416.1663800641149,168.17870236166766L418.12993712880314,196.0208031375224L420.0934941934913,197.04936482223548L422.0570512581795,205.38426123284168L424.0206083228677,203.12319890868787L425.98416538755595,195.62170347003155L427.94772245224414,183.20811663398413L429.9112795169323,185.47627248699803L431.87483658162057,191.67601671071702L433.83839364630876,181.12448120044334L435.80195071099695,197.64344786426807L437.76550777568514,195.9587347599966L439.7290648403734,195.1429789410862L441.69262190506157,192.8819166169324L443.65617896974976,195.05430983033506L445.619736034438,196.73902293460654L447.5832930991262,198.28186546167618L449.5468501638144,203.16753346406344L451.5104072285026,195.00110836388438L453.4739642931908,195.0809105635604L455.437521357879,201.19907920538836L457.4010784225672,200.05524767669877L459.36463548725544,201.9261659135476L461.32819255194363,202.75965555460823L463.2917496166318,199.75377270014494L465.1734918036247,192.99718646090886L467.1370488683129,191.58734759996588L469.1006059330011,200.19711825390058L471.0641629976893,194.62674737829312L473.0277200623775,115.29644470969392L474.9912771270657,0L476.95483419175395,166.0400034103504L478.91839125644213,137.80953192940575L480.8819483211303,173.70278796146303L482.8455053858185,183.2435842782846L484.80906245050676,187.57950379401484L486.77261951519495,192.8287151504817L488.73617657988314,200.4187910307784L490.6997336445714,195.00997527495952L492.66329070925957,198.06905959587348L494.62684777394776,197.2621706880382L496.59040483863595,155.17094381447694L498.5539619033242,191.64054906641658L500.5175189680124,177.0899479921562L502.48107603270057,173.92446073834085L504.4446330973888,157.74961889334128L506.408190162077,122.1860346150567L508.3717472267652,141.09915593827265" stroke="rgb(174,0,13)" id="amount" transform="translate(0, 123.33333587646484) translate(54,10)" style="stroke-width: 2; stroke-linejoin: round; stroke-linecap: round; fill: none; mix-blend-mode: normal;"/><path d="M -1,0 a 1,1 0 1,0 2,0 a 1,1 0 1,0 -2,0 Z" stroke="null" id="amount" transform="translate(0, 123.33333587646484) translate(54,10) translate(508.3717472267652,141.09915593827265) scale(3.5)" style="fill: rgb(174, 0, 13); mix-blend-mode: normal;"/><g id="free-texts-svg"><rect width="56.625" height="34.234375" transform="translate(492.82452392578125, 250.1873321533203)" fill="rgb(255,255,255)" style="fill: rgb(255, 255, 255);"/><text transform="translate(418.4988098144531, 175.49856567382812)" fill="rgb(51, 51, 51)" style="font-family: BentonSans; font-weight: 400; font-size: 10px;"><tspan x="4.539051055908203" dy="10">Bill Mitchell tweet →</tspan></text><text transform="translate(66.20193481445312, 270.5813293457031)" fill="rgb(51, 51, 51)" style="font-family: BentonSans; font-weight: 400; font-size: 10px;"><tspan x="10.578125" dy="10">Fox News </tspan><tspan x="5.9296875" dy="12">interview →</tspan></text><text transform="translate(496.3245544433594, 253.7342071533203)" fill="rgb(51, 51, 51)" style="font-family: BentonSans; font-weight: 400; font-size: 10px;"><tspan x="7.5546875" dy="10">Facebook </tspan><tspan x="5.953125" dy="12">ad blitz →</tspan></text></g></g></g><g id="footer-svg"><g id="footer-inner-svg"><g id="footer-main-svg"><text transform="translate(0, 382.6562805175781)" fill="rgb(136,136,136)" style="font-family: BentonSans; font-weight: 400; font-size: 11px;"><tspan x="0" dy="11">Chart: </tspan></text><text transform="translate(34.097225189208984, 382.6562805175781)" fill="rgb(136,136,136)" style="font-family: BentonSans; font-weight: 400; font-size: 11px;"><tspan x="0" dy="11">Jeff Hargarten, Star Tribune</tspan></text><text transform="translate(176.6319580078125, 382.6562805175781)" fill="rgb(136,136,136)" style="font-family: BentonSans; font-weight: 400; font-size: 11px;"><tspan x="0" dy="11">•</tspan></text><text transform="translate(184.3229217529297, 382.6562805175781)" fill="rgb(136,136,136)" style="font-family: BentonSans; font-weight: 400; font-size: 11px;"><tspan x="0" dy="11">Source:</tspan></text><text transform="translate(225.86807250976562, 382.6562805175781)" fill="rgb(136,136,136)" style="font-family: BentonSans; font-weight: 400; font-size: 11px;"><tspan x="0" dy="11">Federal Election Commission, WinRed</tspan></text></g></g></g></g></svg>